<svg xmlns="http://www.w3.org/2000/svg" width="237.118" height="152.136" viewBox="0 0 237.118 152.136">
  <g id="_3744798" data-name="3744798" transform="translate(-178.127 -101.358)">
    <g id="OBJECTS" transform="translate(178.127 101.358)">
      <g id="Group_10696" data-name="Group 10696">
        <g id="Group_10689" data-name="Group 10689">
          <g id="Group_10686" data-name="Group 10686">
            <path id="Path_38830" data-name="Path 38830" d="M252.352,251.126H168.918a4.558,4.558,0,0,1-4.559-4.559V105.917a4.559,4.559,0,0,1,4.559-4.559h83.434a4.558,4.558,0,0,1,4.559,4.559V246.568a4.555,4.555,0,0,1-4.559,4.559Z" transform="translate(-164.359 -101.358)" fill="#10021f"/>
            <circle id="Ellipse_638" data-name="Ellipse 638" cx="3.507" cy="3.507" r="3.507" transform="translate(44.265 138.848)" fill="#707070"/>
            <g id="Group_10684" data-name="Group 10684" transform="translate(4.579 7.848)">
              <rect id="Rectangle_4017" data-name="Rectangle 4017" width="83.393" height="127.568" fill="#efc929"/>
            </g>
            <g id="Group_10685" data-name="Group 10685" transform="translate(4.579 7.848)">
              <rect id="Rectangle_4018" data-name="Rectangle 4018" width="23.977" height="127.568" fill="#e5b52e"/>
            </g>
          </g>
          <g id="Group_10687" data-name="Group 10687" transform="translate(8.879 63.608)">
            <path id="Path_38831" data-name="Path 38831" d="M249.395,258.006v27.878H190.421l-.235-17.87-9.976-34.469a8.588,8.588,0,0,1,1.082-7.12l6.738-10.213Z" transform="translate(-179.871 -214.075)" fill="#b23d6a"/>
            <path id="Path_38832" data-name="Path 38832" d="M217.693,290.114v25.7h47.874l-.119-25.362-45.623-4.236Z" transform="translate(-196.043 -244.01)" fill="#d34f81"/>
            <rect id="Rectangle_4019" data-name="Rectangle 4019" width="47.775" height="4.268" transform="translate(21.65 46.447)" fill="#b23d6a"/>
            <path id="Path_38833" data-name="Path 38833" d="M205.1,255.446l-.105.722L192.7,219.249a5.138,5.138,0,0,1,4.871-6.77h29.438a5.137,5.137,0,0,1,4.678,3.013l17.467,38.452Z" transform="translate(-185.24 -212.479)" fill="#d34f81"/>
            <path id="Path_38834" data-name="Path 38834" d="M217.062,212.479h-4.38s1.154,6.99,6.155,9.694a9.729,9.729,0,0,1,0,6.874c-1.346,4.1-7.215,13.656-1.78,22.919H231.3l-1.39-36.29Z" transform="translate(-193.901 -212.479)" fill="#b23d6a"/>
            <path id="Path_38835" data-name="Path 38835" d="M263.974,288.422H217.725a3.479,3.479,0,0,1-3.48-3.48h0a3.479,3.479,0,0,1,3.48-3.48h46.249a3.477,3.477,0,0,1,3.48,3.48h0a3.48,3.48,0,0,1-3.48,3.48Z" transform="translate(-194.569 -241.975)" fill="#ea639a"/>
          </g>
          <g id="Group_10688" data-name="Group 10688" transform="translate(31.415 18.624)">
            <path id="Path_38836" data-name="Path 38836" d="M327.259,344.11l3.455,6.206a1.257,1.257,0,0,1-.279,1.452c-.842.874-2.469.016-3.176-.641s-11.285-7.975-11.335-9.338S319,335.63,319,335.63l3.559,1.01Z" transform="translate(-260.58 -220.152)" fill="#d34f81"/>
            <path id="Path_38837" data-name="Path 38837" d="M330.258,351.918c-3.286-3.159-7.463-7.192-8.242-8.033-1.319-1.422,0-5.159,0-5.159s.212-.812.547-2.085h0L319,335.63s-3.129,4.8-3.079,6.159,10.628,8.682,11.335,9.338C327.919,351.74,329.382,352.528,330.258,351.918Z" transform="translate(-260.58 -220.152)" fill="#b23d6a"/>
            <path id="Path_38838" data-name="Path 38838" d="M326.814,318.523l-.4,10.752,2.3,7.521-8.256-8.48-1.137-9.793Z" transform="translate(-262.031 -212.837)" fill="#ffc98f"/>
            <path id="Path_38839" data-name="Path 38839" d="M322.385,318.523h-3.068l1.137,9.793,3.013,3.1Z" transform="translate(-262.031 -212.837)" fill="#eda769"/>
            <path id="Path_38840" data-name="Path 38840" d="M236.55,254.279l1.176,12.542s-1.062,3.22,3.776,3.5,39.582-.485,39.582-.485L278.5,294.448l14.82-1.281L291.9,271.825,278.73,254.279Z" transform="translate(-226.642 -185.368)" fill="#122488"/>
            <path id="Path_38841" data-name="Path 38841" d="M357.664,299.332l5.929,4.8a1.133,1.133,0,0,1,.228,1.552c-.256.334-.738.559-1.639.351-2.162-.5-15.764-4.476-16.292-5.916-.81-2.209,1.246-4.4,1.246-4.4l2.256-3.421Z" transform="translate(-273.313 -201.626)" fill="#d34f81"/>
            <path id="Path_38842" data-name="Path 38842" d="M363.775,305.736c-3.55-1.436-9.9-4.061-10.82-4.805a8.916,8.916,0,0,1-2.082-3.361s.4-1.341.944-3.207l-2.424-2.06-2.256,3.421s-2.056,2.188-1.246,4.4c.528,1.44,14.13,5.417,16.292,5.916A1.509,1.509,0,0,0,363.775,305.736Z" transform="translate(-273.313 -201.626)" fill="#b23d6a"/>
            <path id="Path_38843" data-name="Path 38843" d="M343.715,281.463s3.587,4.78,5.392,7.036,5.135,6.2,5.135,6.2l-10.527-3.609-6.016-5.564Z" transform="translate(-269.891 -196.992)" fill="#ffc98f"/>
            <path id="Path_38844" data-name="Path 38844" d="M340.786,284.916,337.7,287l6.016,5.564,4.377,1.5C345.656,291,342.828,287.456,340.786,284.916Z" transform="translate(-269.891 -198.468)" fill="#eda769"/>
            <path id="Path_38845" data-name="Path 38845" d="M228.311,256.408l.439,4.238s3.127,5.2,10.573,3S273.3,252.317,273.3,252.317l17.268,22.574,10.106-9.989L277.71,242.354s-2.622-2.272-5.034-1.608-12.271,4.666-12.271,4.666l-13.634-5.574-15.522,10.278Z" transform="translate(-223.119 -179.193)" fill="#122488"/>
            <path id="Path_38846" data-name="Path 38846" d="M290.572,275.6l4.137-4.089-19.732-21.98s-19.817,5.8-25.2,6.679-8.859-2.461-5.279-7.4,12.567-2.693,12.567-2.693-6.361-2.453-11.74-4.62l-14.081,9.324-2.936,6.293.439,4.238s3.127,5.2,10.573,3S273.3,253.03,273.3,253.03Z" transform="translate(-223.119 -179.906)" fill="#07006e"/>
            <path id="Path_38847" data-name="Path 38847" d="M244.866,157.747a16.307,16.307,0,0,1-2.4-2.56l2.38-2.749s5.936-4.3,2.246-9.755a8.156,8.156,0,0,0-1.364-5.173,7.059,7.059,0,0,0-7.486-2.817s-6.088-3.694-10.855,4.8c-3.51,6.254-.3,10.028-2.377,12.946s-3.975,5.136-3.591,9.358.547,4.6-.835,7.67a12.443,12.443,0,0,0,.479,12.084c4.331,7.741,15.374,4.846,15.374,4.846l-.546-8.272c5.036-3.437,12.555-4.551,12.555-4.551s1.516-6.19-.627-8.164S247.582,159.919,244.866,157.747Z" transform="translate(-219.241 -133.893)" fill="#07000d"/>
            <path id="Path_38848" data-name="Path 38848" d="M238.191,175.726s5-3.073,5.917-5.019.069-4.359-2.214-6.435,0-5.12,0-5.12l-3.736,1.937s-4.428,9.826-6.721,7.336,1.531-5.4-.268-6.581-3.375,1.477-4.527-.05c-1.082-1.433,1.408-3.873-.1-9.353a9.343,9.343,0,0,1-.06-5.417c-1.978,5.131.379,8.423-1.473,11.029-2.073,2.917-3.975,5.136-3.591,9.358s.547,4.6-.835,7.67a12.443,12.443,0,0,0,.479,12.084c4.331,7.741,15.374,4.846,15.374,4.846l-.546-8.272a20.012,20.012,0,0,1,2.07-1.226Z" transform="translate(-219.241 -139.507)" fill="#0a0016"/>
            <path id="Path_38849" data-name="Path 38849" d="M244.548,182.64l-2.628,9.755,6.218,22.675,2.922,5.886,7.661-1.123s-4.035-32.213-4.1-32.015-3.742-4.263-3.742-4.263Z" transform="translate(-228.938 -154.737)" fill="#f47d31"/>
            <path id="Path_38850" data-name="Path 38850" d="M255.865,220.3l1.157,2.331,7.661-1.123s-4.035-32.214-4.1-32.015a26.572,26.572,0,0,1-2.638-2.936v1.371s2.758,8.727,3.12,14.093c.5,7.4-2.514,15.036-2.514,15.036Z" transform="translate(-234.901 -156.41)" fill="#db661c"/>
            <path id="Path_38851" data-name="Path 38851" d="M252.414,147.388a3.58,3.58,0,0,1-3.41-1.146c-.739-.961-3.133-.954-3.133-.954a3.47,3.47,0,0,1-1.212,3.688,17.625,17.625,0,0,0,.285,3.117c0,1.054-.7,1.855-.379,2.761,0,0-.97-.843-.843-1.665a5.166,5.166,0,0,0,.116-1.718,1.558,1.558,0,0,0-2.657,1.329c.12,1.788,2.385,3.14,2.385,3.14a26.731,26.731,0,0,1-.914,10.73l-1.471.8s4.213,1.907,6.16,1.868a4.586,4.586,0,0,0,3.219-1.749l-1.113-.556v-4.014s3.736-.228,4.769-2.862c.807-2.056,1.017-6.685,1.066-9.636C253.706,150.377,254.56,147.241,252.414,147.388Z" transform="translate(-228.62 -138.765)" fill="#ffba99"/>
            <path id="Path_38852" data-name="Path 38852" d="M279.6,240.965l4.279,1.687s4.567-4.073,5.76-4.073,5.883-.535,6.624.658-.493,4.4-1.769,5.225-3.58.288-4.979,1.029-4.9,2.139-5.678,2.016-5.76-1.852-5.76-1.852Z" transform="translate(-244.399 -178.604)" fill="#ffba99"/>
            <path id="Path_38853" data-name="Path 38853" d="M294.494,247.946a3.864,3.864,0,0,0,1.126-1.34,14.226,14.226,0,0,1-5,.018c-1.1-.218-5.358,2.155-6,2.349s-5.211-1.424-5.211-1.424l-.659-.48-.671,2.07s4.978,1.728,5.76,1.852,4.279-1.275,5.678-2.016S293.218,248.769,294.494,247.946Z" transform="translate(-244.399 -182.087)" fill="#fcaa83"/>
            <path id="Path_38854" data-name="Path 38854" d="M309.836,187.356l3.42-4.506a22.1,22.1,0,0,1,4.072-3.312c1.683-.868,3.084-1.579,3.519-.873s-.533,1.742-1.727,2.556a12.092,12.092,0,0,0,3.855-1.195c1.412-.868,2.334-2.389,3.366-1.574s2.495,5.422-3.9,7.978c-1.871.748-6.257.274-6.257.274l-2.823,3.8Z" transform="translate(-257.978 -152.847)" fill="#ffba99"/>
            <path id="Path_38855" data-name="Path 38855" d="M329.573,181.759c-.86,1.385-2.748,3.972-5.147,4.584a10.739,10.739,0,0,1-5.915-.131l-3.115,3.93.179,1.725.168.151,2.823-3.8s4.386.474,6.257-.274C329.137,186.217,329.869,183.556,329.573,181.759Z" transform="translate(-260.355 -154.36)" fill="#fcaa83"/>
            <path id="Path_38856" data-name="Path 38856" d="M273.25,187.538l-9.273,12.939-15.3-14.557A10.333,10.333,0,0,0,242.831,183a30.592,30.592,0,0,1,6.373,15.97,90.253,90.253,0,0,1,.268,14.23l-5.505-2.252c-.493-9.86-2.215-24.045-7.932-28.306l-1.471.8s-4.777,2.742-5.629,5.223c-.806,2.352-.591,7.949,1,11.727h0a28.562,28.562,0,0,1,1.339,10.318c-.428,5.247-5.461,11.887-5.568,16.6a21.7,21.7,0,0,0,1.928,8.888s6.639-12.907,16.491-15.234c0,0,.022-.736.027-2,5.344,1.9,11.794,4.089,11.794,4.089l2.339-6.239-5.694-2.329a41.188,41.188,0,0,1-.476-6.449,46.868,46.868,0,0,0-.216-7.014l8.842,6.583s3.666,3.127,6.793-.216,11.753-15.1,11.753-15.1Z" transform="translate(-222.004 -154.737)" fill="#faffff"/>
            <path id="Path_38857" data-name="Path 38857" d="M257.014,223.58l-16.866-5.606s-8.365-21.215-9.788-23.574a5.673,5.673,0,0,1-.514-3.85,4.9,4.9,0,0,0-.91,1.491c-.806,2.352-.591,7.949,1,11.727h0a28.562,28.562,0,0,1,1.339,10.318c-.428,5.247-5.461,11.887-5.568,16.6a21.7,21.7,0,0,0,1.928,8.888,42.484,42.484,0,0,1,6.985-9.432h0c-2.022-6.655-.626-17.8-.626-17.8s1.765,6.972,2.87,7.328c1.584.509,7.289,2.665,7.289,2.665,5.344,1.9,11.794,4.089,11.794,4.089Z" transform="translate(-222.004 -158.119)" fill="#d3e9ef"/>
            <path id="Path_38858" data-name="Path 38858" d="M296.482,196.4c-3.622,5.3-10.587,15.036-12.911,15.036-3.194,0-12.408-9.582-12.408-9.582l.176,5.038,8.842,6.583s3.666,3.127,6.793-.216,11.753-15.1,11.753-15.1Z" transform="translate(-241.441 -160.622)" fill="#d3e9ef"/>
            <path id="Path_38859" data-name="Path 38859" d="M249.447,169.279v-4.014a7.8,7.8,0,0,0,2.87-.836c-1.741.319-4.016.584-5.508-2.347-.961-1.886-1.369-7.647-1.539-11.526a5.607,5.607,0,0,1-.612.673,17.626,17.626,0,0,0,.285,3.117c0,1.054-.7,1.855-.379,2.761,0,0-.97-.843-.843-1.665a5.166,5.166,0,0,0,.116-1.718,1.558,1.558,0,0,0-2.657,1.329c.12,1.788,2.385,3.14,2.385,3.14a26.731,26.731,0,0,1-.914,10.73l-1.471.8s4.213,1.907,6.16,1.868a4.587,4.587,0,0,0,3.219-1.749Z" transform="translate(-228.62 -141.018)" fill="#fcaa83"/>
          </g>
        </g>
        <g id="Group_10695" data-name="Group 10695" transform="translate(146.309 4.265)">
          <g id="Group_10691" data-name="Group 10691" transform="translate(30.098 98.83)">
            <g id="Group_10690" data-name="Group 10690" transform="translate(8.972)">
              <path id="Path_38860" data-name="Path 38860" d="M540.487,290.114v40.056h-46.4l.119-39.714,44.153-4.236Z" transform="translate(-490.723 -283.497)" fill="#ee6209"/>
              <path id="Path_38861" data-name="Path 38861" d="M491.692,288.422h44.779a3.479,3.479,0,0,0,3.48-3.48h0a3.478,3.478,0,0,0-3.48-3.48H491.692a3.477,3.477,0,0,0-3.48,3.48h0a3.48,3.48,0,0,0,3.48,3.48Z" transform="translate(-488.212 -281.463)" fill="#ee6209"/>
            </g>
            <path id="Path_38862" data-name="Path 38862" d="M526.713,290.114v40.056h-46.4l.119-39.714,44.153-4.236Z" transform="translate(-475.86 -283.497)" fill="#f47d31"/>
            <rect id="Rectangle_4020" data-name="Rectangle 4020" width="50.852" height="4.268" transform="translate(0 6.959)" fill="#ee6209"/>
            <path id="Path_38863" data-name="Path 38863" d="M477.917,288.422H522.7a3.479,3.479,0,0,0,3.48-3.48h0a3.479,3.479,0,0,0-3.48-3.48H477.917a3.477,3.477,0,0,0-3.48,3.48h0a3.48,3.48,0,0,0,3.48,3.48Z" transform="translate(-473.35 -281.463)" fill="#f47d31"/>
          </g>
          <g id="Group_10692" data-name="Group 10692" transform="translate(10.988 15.065)">
            <path id="Path_38864" data-name="Path 38864" d="M506.1,154.873a6.69,6.69,0,0,1-2.75-7.854s-1.877-4.932.531-8.032c3.938-5.072,10.792-4.39,14.2-2.232a9.125,9.125,0,0,1,3.743,4.488s2.52,1.278,2.789,6.7c.319,6.425-6.248,10.491-3.8,14.17,0,0-2.628,1.927-5.549-2.219Z" transform="translate(-466.304 -135.128)" fill="#0e001b"/>
            <path id="Path_38865" data-name="Path 38865" d="M515.267,160.142c2.92,4.147,5.549,2.219,5.549,2.219-1.545-2.318.489-4.79,2.127-7.908-.019.023-2.008,2.353-3.214.908s1.394-5.079,0-7.891-.692-4.444-.692-4.444-9.523-.907-10.068-4.716a4.512,4.512,0,0,1,.344-2.607,9.73,9.73,0,0,0-5.435,3.53c-2.408,3.1-.531,8.032-.531,8.032a6.69,6.69,0,0,0,2.75,7.854Z" transform="translate(-466.304 -135.374)" fill="#190036"/>
            <path id="Path_38866" data-name="Path 38866" d="M450.407,345.12l-9.793,5.9a2.067,2.067,0,0,0-1.458,1.911c.069,1.423,2.431,1.7,7.64,1.423a47.691,47.691,0,0,0,11.467-2.563l-2.076-4.314-2.515-3.473-3.75,1.112" transform="translate(-439.153 -224.441)" fill="#f97a53"/>
            <path id="Path_38867" data-name="Path 38867" d="M454.165,346.8s-.44-.941-1.149-2.452l-3.1.917h.486l-9.793,5.9a2.067,2.067,0,0,0-1.458,1.911c.041.841.891,1.28,2.65,1.442Z" transform="translate(-439.153 -224.587)" fill="#e55d3e"/>
            <path id="Path_38868" data-name="Path 38868" d="M457.964,330.754l.486,8.088,5.78,2.361,1.235-11.877Z" transform="translate(-447.196 -218.164)" fill="#ffc98f"/>
            <path id="Path_38869" data-name="Path 38869" d="M463.069,330.123l-5.1.971.486,8.088,3.758,1.535Z" transform="translate(-447.196 -218.504)" fill="#eda769"/>
            <path id="Path_38870" data-name="Path 38870" d="M466.474,332.37l.631,11.04-5.435,3.078,11.132-1.572,1.31-13.1Z" transform="translate(-448.781 -219.23)" fill="#ffc98f"/>
            <path id="Path_38871" data-name="Path 38871" d="M470.859,345.335l.557-13.176-4.942.356.631,11.04-5.435,3.078Z" transform="translate(-448.781 -219.375)" fill="#eda769"/>
            <path id="Path_38872" data-name="Path 38872" d="M495.262,248.056l-4.83,5.892-32.125,6.876s-6.105,1.928-6.855,6.855.536,29.885.536,29.885l12.211-.214L472.66,266.5l33.956-5.056L504.9,248.056Z" transform="translate(-444.311 -183.414)" fill="#07006e"/>
            <path id="Path_38873" data-name="Path 38873" d="M486.411,257.929l-14.972,3.239s-5.952,2.177-5.761,9.913c.242,9.82,0,25.013,0,25.013l12.156-.28.169-23.68,33.229-4.115s7.831-.181,7.033-11.078c-.053-.732-7.012-15.148-7.012-15.148L496.1,257.9Z" transform="translate(-450.493 -180.736)" fill="#122488"/>
            <path id="Path_38874" data-name="Path 38874" d="M511.253,241.793,496.1,257.9l-9.689.028-14.972,3.239s-5.952,2.177-5.761,9.913c.242,9.82,0,25.013,0,25.013l9.117-.211-.831-26.94s27.071-4.07,33.169-6.02,7.392-8.676,7.392-8.676V249.57l.325-.246C513.066,245.549,511.253,241.793,511.253,241.793Z" transform="translate(-450.493 -180.736)" fill="#0f1f79"/>
            <path id="Path_38875" data-name="Path 38875" d="M509.717,184.913s-6.071,3.814-6.9,8.866S500.45,204.7,500.45,204.7l.931.687,2.237,4.58,3.224,2.475,1.926-1.661s2.507,10.734,2.714,15.374c0,0,12.579-1.753,16.291,0a12.127,12.127,0,0,1,5.361,5.671,57.038,57.038,0,0,0,.246-10.571c-.952-8.518-2.587-20.387-2.587-20.387s-.819-8.682-5.244-13.949c-2.3-2.736-6.762-3.863-6.762-3.863Z" transform="translate(-465.363 -155.621)" fill="#d34f81"/>
            <path id="Path_38876" data-name="Path 38876" d="M529.975,205.435s-2.13-9.431-4.519-13.667-7.6-4.67-7.6-4.67l-6,2.962,2.125-5.285-4.264.874s-6.071,3.814-6.9,8.866-2.371,10.921-2.371,10.921l.931.687,2.237,4.58,3.224,2.475,1.926-1.661s2.507,10.734,2.714,15.374c0,0,12.579-1.753,16.291,0a9.579,9.579,0,0,1,1.82,1.135,55.965,55.965,0,0,0-1.926-11.819l-.908-2.064,1.586-8.707Z" transform="translate(-465.363 -156.356)" fill="#b23d6a"/>
            <path id="Path_38877" data-name="Path 38877" d="M505.985,152s.615,9.077,1.939,10.968a6.481,6.481,0,0,0,3.971,2.27,3.4,3.4,0,0,1,.189,4.113l1.253,5.045s6.4-4.444,7.818-6.9c0,0-.939.392-1.27-1.83a76.014,76.014,0,0,1-.236-7.942,3.588,3.588,0,0,1-2.033,1.654,4.9,4.9,0,0,0,.662-2.127,5.082,5.082,0,0,0,1.986-1.986c.567-1.23.236-2.931-.756-3.262s-1.655,1.465-1.655,1.465a5.837,5.837,0,0,1,.116-3.6s-8.2-.471-10.234-3.212A29.007,29.007,0,0,0,505.985,152Z" transform="translate(-467.729 -140.058)" fill="#ffba99"/>
            <path id="Path_38878" data-name="Path 38878" d="M517.673,222.084l8.05-1.215,1.553,8.7s.546,3.276-1.274,5.036-16.747,16.261-16.747,16.261a15.331,15.331,0,0,1-3.883,1.456c-1.335.121-2.245,0-3.823,0s-4.976,1.881-5.764,1.638-1.578-.607-1.456-2.609a5.567,5.567,0,0,1,3.4-4.733c1.82-.607,5.1-.364,8.131.425L520.117,230.9Z" transform="translate(-462.74 -171.789)" fill="#ffba99"/>
            <path id="Path_38879" data-name="Path 38879" d="M521.933,221.868l-4.26.643,2.444,8.816-14.258,16.139c-3.034-.789-6.31-1.032-8.131-.425a5.567,5.567,0,0,0-3.4,4.733c-.121,1.993.66,2.363,1.445,2.606a15.345,15.345,0,0,1,4.207-4.092c2.5-1.25,7.437-.9,7.437-.9l16.942-18.476Z" transform="translate(-462.74 -172.216)" fill="#fcaa83"/>
            <path id="Path_38880" data-name="Path 38880" d="M483.847,209.085l-.546,3.883-9.769-12.863s-2.305-2.306-3.64-4-2.118-3.7-2.868-3.45c-1.131.377-.9,1.737.371,4.043,0,0-3.551-1.481-4.36-3.491-.776-1.927-3.155-1.956-3.519-.318s.592,6.721,3.262,8.237a20.371,20.371,0,0,0,6.568,1.957l12.326,19.511c.9,1.28,2.758,3.267,5.118,2.2,2.918-1.321,3.835-8.046,4.445-10.309Z" transform="translate(-447.828 -159.319)" fill="#ffba99"/>
            <path id="Path_38881" data-name="Path 38881" d="M462.128,352.068l-11.144,5.448a2.647,2.647,0,0,0-.951,1.829c-.073,1.171,1.317,1.171,3,1.317s15.438-.22,15.73-.951-.937-6.136-.937-6.136Z" transform="translate(-443.803 -227.888)" fill="#f97a53"/>
            <path id="Path_38882" data-name="Path 38882" d="M465.915,353.069h0l-3.787-1-11.144,5.448a2.647,2.647,0,0,0-.951,1.829c-.057.913.777,1.113,1.944,1.227Z" transform="translate(-443.803 -227.888)" fill="#e55d3e"/>
            <path id="Path_38883" data-name="Path 38883" d="M517.832,164.943l1-1.451a7.943,7.943,0,0,1-3.767,1c-2.135,0-4.668-1.451-5.828-6.44-.6-2.584-.282-6.7.165-10.1a4.744,4.744,0,0,1-1.666-1.3A29.007,29.007,0,0,0,505.985,152s.615,9.077,1.939,10.968a6.481,6.481,0,0,0,3.971,2.27,3.4,3.4,0,0,1,.189,4.113l1.253,5.045s2.656-1.845,4.925-3.815A15.069,15.069,0,0,1,517.832,164.943Z" transform="translate(-467.729 -140.058)" fill="#fcaa83"/>
            <path id="Path_38884" data-name="Path 38884" d="M462.778,201.122a20.371,20.371,0,0,0,6.568,1.957l12.326,19.511a7.451,7.451,0,0,0,1.73,1.795,6.694,6.694,0,0,0,3.543-4.009c.475-1.429,1.192-4.29,1.956-7.6l-5.053-3.69-.546,3.883-9.769-12.863s-2.305-2.306-3.64-4-2.118-3.7-2.868-3.45c-1.131.377-.9,1.737.371,4.043,0,0-3.551-1.481-4.36-3.491-.776-1.927-3.155-1.956-3.519-.318S460.108,199.606,462.778,201.122Z" transform="translate(-447.828 -159.319)" fill="#fcaa83"/>
          </g>
          <g id="Group_10694" data-name="Group 10694">
            <g id="Group_10693" data-name="Group 10693">
              <path id="Path_38885" data-name="Path 38885" d="M463.183,139.6a.289.289,0,0,1-.156-.046l-9.635-6.295a12.436,12.436,0,0,1-3.086.4H432.381a12.424,12.424,0,1,1,0-24.849H450.3a12.42,12.42,0,0,1,8.174,21.775l4.952,8.585a.286.286,0,0,1-.248.429Zm-9.741-6.937a.283.283,0,0,1,.156.046l8.739,5.709-4.472-7.752a.286.286,0,0,1,.064-.362,11.848,11.848,0,0,0-7.622-20.921H432.381a11.852,11.852,0,1,0,0,23.7H450.3a11.886,11.886,0,0,0,3.062-.414A.268.268,0,0,1,453.441,132.662Z" transform="translate(-419.957 -108.809)" fill="#122488"/>
            </g>
            <path id="Path_38886" data-name="Path 38886" d="M440.269,129.037a1.586,1.586,0,1,1-1.586-1.585A1.586,1.586,0,0,1,440.269,129.037Zm8.773-1.585a1.585,1.585,0,1,0,1.586,1.585A1.585,1.585,0,0,0,449.042,127.452Zm10.358,0a1.585,1.585,0,1,0,1.586,1.585A1.585,1.585,0,0,0,459.4,127.452Z" transform="translate(-427.286 -116.78)" fill="#122488"/>
          </g>
        </g>
      </g>
    </g>
  </g>
</svg>
